<svg width="70" height="70" viewBox="0 0 70 70" fill="none" xmlns="http://www.w3.org/2000/svg">
<path d="M27.6673 12.5379H26.7229V11.5936C26.7229 11.0271 26.2637 10.5677 25.697 10.5677C25.1303 10.5677 24.6711 11.0271 24.6711 11.5936V12.5379H23.7267C23.16 12.5379 22.7008 12.9973 22.7008 13.5639C22.7008 14.1304 23.16 14.5898 23.7267 14.5898H24.6711V15.5343C24.6711 16.1008 25.1303 16.5602 25.697 16.5602C26.2637 16.5602 26.7229 16.1008 26.7229 15.5343V14.5898H27.6673C28.234 14.5898 28.6932 14.1304 28.6932 13.5639C28.6932 12.9973 28.234 12.5379 27.6673 12.5379Z" fill="white"/>
<path d="M46.2719 12.5379H45.3276V11.5936C45.3276 11.0271 44.8683 10.5677 44.3016 10.5677C43.7349 10.5677 43.2757 11.0271 43.2757 11.5936V12.5379H42.3314C41.7647 12.5379 41.3054 12.9973 41.3054 13.5639C41.3054 14.1304 41.7647 14.5898 42.3314 14.5898H43.2757V15.5343C43.2757 16.1008 43.7349 16.5602 44.3016 16.5602C44.8683 16.5602 45.3276 16.1008 45.3276 15.5343V14.5898H46.2719C46.8386 14.5898 47.2978 14.1304 47.2978 13.5639C47.2978 12.9973 46.8386 12.5379 46.2719 12.5379Z" fill="white"/>
<path d="M27.6673 26.6295H26.7229V25.6852C26.7229 25.1186 26.2637 24.6592 25.697 24.6592C25.1303 24.6592 24.6711 25.1186 24.6711 25.6852V26.6295H23.7267C23.16 26.6295 22.7008 27.0889 22.7008 27.6555C22.7008 28.222 23.16 28.6814 23.7267 28.6814H24.6711V29.6257C24.6711 30.1923 25.1303 30.6517 25.697 30.6517C26.2637 30.6517 26.7229 30.1923 26.7229 29.6257V28.6814H27.6673C28.234 28.6814 28.6932 28.222 28.6932 27.6555C28.6932 27.0889 28.234 26.6295 27.6673 26.6295Z" fill="white"/>
<path d="M46.2719 26.6295H45.3276V25.6852C45.3276 25.1186 44.8684 24.6592 44.3017 24.6592C43.735 24.6592 43.2757 25.1186 43.2757 25.6852V26.6295H42.3314C41.7647 26.6295 41.3055 27.0889 41.3055 27.6555C41.3055 28.222 41.7647 28.6814 42.3314 28.6814H43.2757V29.6257C43.2757 30.1923 43.735 30.6517 44.3017 30.6517C44.8684 30.6517 45.3276 30.1923 45.3276 29.6257V28.6814H46.2719C46.8386 28.6814 47.2979 28.222 47.2979 27.6555C47.2979 27.0889 46.8386 26.6295 46.2719 26.6295Z" fill="white"/>
<path d="M63.0154 29.01H49.4385C48.2788 29.01 47.3351 29.9535 47.3351 31.1133V33.8908C47.3351 35.0506 48.2786 35.9941 49.4385 35.9941H49.6358V40.6382C48.7225 39.9188 47.5719 39.4879 46.3219 39.4879H22.5269C21.2769 39.4879 20.1263 39.9187 19.2131 40.6382V35.9842H19.6803C20.8401 35.9842 21.7837 35.0407 21.7837 33.8809V31.1033C21.7837 29.9435 20.8402 29 19.6803 29H6.10342C4.94363 29 4 29.9435 4 31.1033V33.8809C4 35.0407 4.9435 35.9842 6.10342 35.9842H6.57059V49.0787C6.57059 51.1735 8.18401 52.8977 10.2334 53.0764V55.1226C10.2334 56.7477 11.5556 58.0697 13.1807 58.0697H15.5317V67.9063H14.0628C13.4961 67.9063 13.0368 68.3656 13.0368 68.9322C13.0368 69.4988 13.4961 69.9581 14.0628 69.9581H24.314C24.8807 69.9581 25.3399 69.4988 25.3399 68.9322C25.3399 68.3656 24.8807 67.9063 24.314 67.9063H22.8451V58.0697H46.004V67.9063H44.5351C43.9684 67.9063 43.5092 68.3656 43.5092 68.9322C43.5092 69.4988 43.9684 69.9581 44.5351 69.9581H54.7864C55.3531 69.9581 55.8124 69.4988 55.8124 68.9322C55.8124 68.3656 55.3531 67.9063 54.7864 67.9063H53.3174V58.0697H55.6686C57.2936 58.0697 58.6157 56.7477 58.6157 55.1226V53.0764C60.6651 52.8978 62.2785 51.1735 62.2785 49.0787V35.9941H63.0157C64.1755 35.9941 65.1191 35.0506 65.1191 33.8908V31.1133C65.1188 29.9536 64.1753 29.01 63.0154 29.01ZM22.5269 41.54H46.322C48.1494 41.54 49.636 43.0266 49.636 44.8539V51.0407H19.213V44.8539C19.213 43.0266 20.6997 41.54 22.5269 41.54ZM6.10342 33.9323C6.07512 33.9323 6.05201 33.9092 6.05201 33.8809V31.1033C6.05201 31.075 6.07512 31.0519 6.10342 31.0519H19.6803C19.7086 31.0519 19.7317 31.075 19.7317 31.1033V33.8809C19.7317 33.9092 19.7086 33.9323 19.6803 33.9323H6.10342ZM10.5845 51.0409C9.50266 51.0407 8.62247 50.1605 8.62247 49.0788V35.9843H17.1611V51.0409H10.5845ZM20.7931 67.9063H17.5837V58.0699H20.7931V67.9063ZM51.2652 67.9063H48.0559V58.0699H51.2652V67.9063ZM56.5635 55.1226C56.5635 55.6163 56.162 56.0179 55.6684 56.0179H13.1807C12.687 56.0179 12.2853 55.6163 12.2853 55.1226V53.0926H56.5635V55.1226ZM60.2264 49.0788C60.2264 50.1607 59.3462 51.0407 58.2643 51.0407H51.6878V35.9943H60.2264V49.0788ZM63.067 33.891C63.067 33.9193 63.0439 33.9424 63.0156 33.9424H49.4387C49.4104 33.9424 49.3873 33.9193 49.3873 33.891V31.1134C49.3873 31.0851 49.4104 31.062 49.4387 31.062H63.0156C63.0439 31.062 63.067 31.0851 63.067 31.1134V33.891Z" fill="white"/>
<path d="M57.6956 8.45511C57.6959 3.793 53.9029 0 49.2408 0H20.4864C15.8242 0 12.0313 3.793 12.0313 8.45511V25.269C12.0314 25.8357 12.4907 26.2949 13.0574 26.2949C13.6241 26.2949 14.0833 25.8355 14.0833 25.269V8.45511C14.0833 4.92435 16.9558 2.05188 20.4864 2.05188H49.2406C52.7712 2.05188 55.6437 4.92435 55.6437 8.4599L55.7232 25.2737C55.7259 25.8387 56.1846 26.2949 56.749 26.2949C56.7506 26.2949 56.7522 26.2949 56.7539 26.2949C57.3206 26.2922 57.7778 25.8307 57.775 25.264L57.6956 8.45511Z" fill="white"/>
</svg>
